<?xml version="1.0" encoding="UTF-8"?>
<svg xmlns="http://www.w3.org/2000/svg" xmlns:xlink="http://www.w3.org/1999/xlink" width="19px" height="17px" viewBox="0 0 19 17" version="1.1">
<g id="surface1">
<path style=" stroke:none;fill-rule:nonzero;fill:rgb(0%,0%,0%);fill-opacity:1;" d="M 12.574219 4.992188 L 17.3125 5.695312 C 17.707031 5.75 18.035156 6.03125 18.164062 6.410156 C 18.289062 6.796875 18.183594 7.214844 17.902344 7.5 L 14.464844 10.894531 L 15.277344 15.761719 C 15.34375 16.160156 15.179688 16.566406 14.851562 16.800781 C 14.523438 17.035156 14.089844 17.066406 13.738281 16.878906 L 9.503906 14.601562 L 5.269531 16.878906 C 4.914062 17.066406 4.484375 17.035156 4.15625 16.800781 C 3.828125 16.566406 3.664062 16.160156 3.734375 15.761719 L 4.546875 10.894531 L 1.109375 7.5 C 0.824219 7.214844 0.722656 6.796875 0.847656 6.410156 C 0.972656 6.03125 1.300781 5.75 1.695312 5.695312 L 6.433594 4.992188 L 8.554688 0.597656 C 8.730469 0.230469 9.101562 0 9.503906 0 C 9.910156 0 10.277344 0.230469 10.453125 0.597656 Z M 12.574219 4.992188 "/>
</g>
</svg>
