<svg xmlns="http://www.w3.org/2000/svg" width="50.12" height="38.875" viewBox="0 0 50.12 38.875">
  <defs>
    <style>
      .cls-1 {
        fill: #a3bbc8;
        fill-rule: evenodd;
      }
    </style>
  </defs>
  <path id="Path_324" data-name="Path 324" class="cls-1" d="M2096.16,79.674a1.107,1.107,0,0,0,.62.387l48.04,9.8a1.144,1.144,0,0,0,.91-0.212,0.886,0.886,0,0,0,.31-0.8h0l-6.25-37.079a0.991,0.991,0,0,0-.45-0.645,1.35,1.35,0,0,0-.97-0.051l-35.19,14.05a0.909,0.909,0,0,0-.51.452c-0.17.325-6.49,13.076-6.58,13.257A0.805,0.805,0,0,0,2096.16,79.674Zm45.58,6.436-20.05-11.145,10.34-2.159Zm-37.69-18.883,12.52,6.983-17.83,3.715Zm1.66-1.172,31.53-12.587-5.56,17.587-12.37,2.584Zm37.65,18.995-9.78-13.4,4.91-15.52Zm-3.88,1.9-38.05-7.761,17.52-3.65Z" transform="translate(-2096 -51)"/>
</svg>
