<?xml version="1.0" encoding="UTF-8"?>
<svg xmlns="http://www.w3.org/2000/svg" xmlns:xlink="http://www.w3.org/1999/xlink" width="18px" height="18px" viewBox="0 0 18 18" version="1.1">
<g id="surface1">
<path style=" stroke:none;fill-rule:nonzero;fill:#fff;fill-opacity:1;" d="M 0.136719 1.929688 C 0.367188 1.4375 0.863281 1.125 1.40625 1.125 L 16.59375 1.125 C 17.140625 1.125 17.632812 1.4375 17.863281 1.929688 C 18.097656 2.421875 18.023438 3 17.652344 3.421875 L 11.25 11.28125 L 11.25 15.75 C 11.25 16.175781 11.011719 16.566406 10.628906 16.753906 C 10.25 16.945312 9.789062 16.90625 9.449219 16.648438 L 7.199219 14.960938 C 6.914062 14.75 6.75 14.417969 6.75 14.0625 L 6.75 11.28125 L 0.316406 3.421875 C -0.0273438 3 -0.0976562 2.421875 0.136719 1.929688 Z M 0.136719 1.929688 "/>
</g>
</svg>
