<?xml version="1.0" encoding="UTF-8"?>
<svg xmlns="http://www.w3.org/2000/svg" xmlns:xlink="http://www.w3.org/1999/xlink" width="16px" height="16px" viewBox="0 0 16 16" version="1.1">
<g id="surface1">
<path style=" stroke:none;fill-rule:nonzero;fill:rgb(0%,0%,0%);fill-opacity:1;" d="M 14.355469 4.742188 C 14.367188 4.882812 14.367188 5.027344 14.367188 5.167969 C 14.367188 9.503906 11.066406 14.496094 5.035156 14.496094 C 3.175781 14.496094 1.453125 13.960938 0 13.027344 C 0.265625 13.054688 0.519531 13.066406 0.792969 13.066406 C 2.324219 13.066406 3.734375 12.546875 4.863281 11.664062 C 3.421875 11.632812 2.214844 10.691406 1.796875 9.390625 C 2 9.421875 2.203125 9.441406 2.417969 9.441406 C 2.710938 9.441406 3.003906 9.402344 3.277344 9.328125 C 1.777344 9.023438 0.648438 7.707031 0.648438 6.113281 L 0.648438 6.070312 C 1.085938 6.316406 1.59375 6.46875 2.132812 6.488281 C 1.25 5.898438 0.671875 4.894531 0.671875 3.757812 C 0.671875 3.148438 0.832031 2.589844 1.117188 2.101562 C 2.730469 4.089844 5.15625 5.390625 7.878906 5.53125 C 7.828125 5.289062 7.796875 5.035156 7.796875 4.78125 C 7.796875 2.976562 9.257812 1.503906 11.074219 1.503906 C 12.019531 1.503906 12.871094 1.898438 13.472656 2.539062 C 14.214844 2.394531 14.921875 2.121094 15.554688 1.746094 C 15.308594 2.507812 14.792969 3.148438 14.113281 3.554688 C 14.773438 3.480469 15.410156 3.300781 16 3.046875 C 15.554688 3.695312 14.996094 4.273438 14.355469 4.742188 Z M 14.355469 4.742188 "/>
</g>
</svg>
